<?xml version="1.0" encoding="utf-8"?>
<!-- Generator: Adobe Illustrator 24.1.3, SVG Export Plug-In . SVG Version: 6.00 Build 0)  -->
<svg version="1.1" id="Calque_1" xmlns="http://www.w3.org/2000/svg" xmlns:xlink="http://www.w3.org/1999/xlink" x="0px" y="0px"
	 viewBox="0 0 511 511" style="enable-background:new 0 0 511 511;" xml:space="preserve">
<style type="text/css">
	.st0{fill:none;stroke:#24549B;stroke-width:41;stroke-linecap:round;stroke-linejoin:round;stroke-miterlimit:10;}
</style>
<path class="st0" d="M486.8,201.4c-3-9.4-11.4-16.1-21.3-17l-134.2-12.2L278.2,48c-3.9-9.1-12.8-15-22.7-15c-9.9,0-18.8,5.9-22.7,15
	l-53.1,124.2L45.5,184.4c-9.9,0.9-18.2,7.6-21.3,17s-0.2,19.7,7.2,26.3l101.5,89L103,448.4c-2.2,9.7,1.6,19.7,9.6,25.5
	c4.3,3.1,9.4,4.7,14.5,4.7c4.4,0,8.8-1.2,12.7-3.5l115.8-69.2l115.7,69.2c8.5,5.1,19.1,4.6,27.2-1.2c8-5.8,11.8-15.8,9.6-25.5
	l-29.9-131.8l101.5-89C487,221.1,489.9,210.8,486.8,201.4z"/>
</svg>
